<svg xmlns="http://www.w3.org/2000/svg" xmlns:xlink="http://www.w3.org/1999/xlink" width="176" zoomAndPan="magnify" viewBox="0 0 132 30.000001" height="40" preserveAspectRatio="xMidYMid meet" version="1.0"><defs><g/><clipPath id="dd31103b9a"><path d="M 3.1875 1.109375 L 128.730469 1.109375 L 128.730469 27.964844 L 3.1875 27.964844 Z M 3.1875 1.109375 " clip-rule="nonzero"/></clipPath></defs><g fill="#000000" fill-opacity="1"><g transform="translate(9.268792, 23.718237)"><g><path d="M 19.191406 -0.0859375 C 18.5 -0.0859375 17.753906 -0.632812 17.464844 -1.292969 L 9.8125 -20.488281 C 9.8125 -20.488281 9.8125 -20.515625 9.78125 -20.515625 C 9.78125 -20.515625 9.753906 -20.542969 9.753906 -20.542969 C 9.726562 -20.542969 9.726562 -20.542969 9.726562 -20.542969 C 9.726562 -20.542969 9.726562 -20.542969 9.695312 -20.542969 C 9.667969 -20.542969 9.667969 -20.542969 9.667969 -20.542969 C 9.667969 -20.542969 9.667969 -20.515625 9.667969 -20.515625 C 9.640625 -20.515625 9.640625 -20.515625 9.640625 -20.515625 C 9.640625 -20.515625 9.640625 -20.488281 9.640625 -20.488281 L 8 -16.429688 C 8 -16.402344 8 -16.371094 8 -16.34375 L 12.027344 -6.242188 L 4 -6.242188 C 4 -6.242188 4 -6.242188 3.972656 -6.242188 C 3.972656 -6.242188 3.972656 -6.214844 3.941406 -6.214844 C 3.941406 -6.1875 3.914062 -6.1875 3.914062 -6.1875 L 1.984375 -1.324219 C 1.699219 -0.632812 0.921875 -0.0859375 0.257812 -0.0859375 C 0.203125 -0.0859375 0.171875 -0.0273438 0.171875 0.0273438 C 0.171875 0.0585938 0.203125 0.113281 0.257812 0.113281 L 2.847656 0.113281 C 2.90625 0.113281 2.933594 0.0585938 2.933594 0.0273438 C 2.933594 -0.0273438 2.90625 -0.0859375 2.847656 -0.0859375 C 2.5625 -0.0859375 2.332031 -0.203125 2.1875 -0.375 C 2.042969 -0.605469 2.042969 -0.921875 2.15625 -1.238281 L 4.085938 -6.042969 L 12.113281 -6.042969 L 14.042969 -1.238281 C 14.15625 -0.921875 14.15625 -0.605469 14.011719 -0.375 C 13.867188 -0.203125 13.636719 -0.0859375 13.351562 -0.0859375 C 13.292969 -0.0859375 13.234375 -0.0273438 13.234375 0.0273438 C 13.234375 0.0585938 13.292969 0.113281 13.351562 0.113281 L 19.191406 0.113281 C 19.21875 0.113281 19.277344 0.0585938 19.277344 0.0273438 C 19.277344 -0.0273438 19.21875 -0.0859375 19.191406 -0.0859375 Z M 19.191406 -0.0859375 "/></g></g></g><g fill="#000000" fill-opacity="1"><g transform="translate(28.743739, 23.718237)"><g><path d="M 6.90625 -19.910156 C 6.964844 -19.910156 6.992188 -19.941406 6.992188 -19.996094 C 6.992188 -20.054688 6.964844 -20.113281 6.90625 -20.113281 L 1.292969 -20.113281 C 1.238281 -20.113281 1.207031 -20.054688 1.207031 -19.996094 C 1.207031 -19.941406 1.238281 -19.910156 1.292969 -19.910156 C 1.957031 -19.910156 2.503906 -19.363281 2.503906 -18.703125 L 2.503906 -1.292969 C 2.503906 -0.632812 1.957031 -0.0859375 1.292969 -0.0859375 C 1.238281 -0.0859375 1.207031 -0.0273438 1.207031 0 C 1.207031 0.0585938 1.238281 0.113281 1.292969 0.113281 L 6.90625 0.113281 C 6.964844 0.113281 6.992188 0.0585938 6.992188 0 C 6.992188 -0.0273438 6.964844 -0.0859375 6.90625 -0.0859375 C 6.242188 -0.0859375 5.695312 -0.632812 5.695312 -1.292969 L 5.695312 -18.703125 C 5.695312 -19.363281 6.242188 -19.910156 6.90625 -19.910156 Z M 17.207031 -0.0859375 C 16.515625 -0.0859375 15.652344 -0.632812 15.25 -1.324219 L 9.550781 -11.308594 L 15.019531 -18.644531 C 15.539062 -19.335938 16.515625 -19.910156 17.207031 -19.910156 C 17.265625 -19.910156 17.292969 -19.941406 17.292969 -19.996094 C 17.292969 -20.054688 17.265625 -20.113281 17.207031 -20.113281 L 14.617188 -20.113281 C 14.558594 -20.113281 14.5 -20.054688 14.5 -19.996094 C 14.5 -19.941406 14.558594 -19.910156 14.617188 -19.910156 C 14.789062 -19.910156 15.019531 -19.855469 15.105469 -19.679688 C 15.222656 -19.480469 15.132812 -19.132812 14.847656 -18.761719 L 7.394531 -8.746094 C 7.367188 -8.71875 7.367188 -8.71875 7.367188 -8.71875 C 7.367188 -8.691406 7.367188 -8.691406 7.367188 -8.691406 C 7.367188 -8.691406 7.367188 -8.691406 7.367188 -8.660156 C 7.367188 -8.660156 7.367188 -8.632812 7.367188 -8.632812 L 11.59375 -1.238281 C 11.796875 -0.890625 11.855469 -0.574219 11.710938 -0.34375 C 11.625 -0.171875 11.421875 -0.0859375 11.136719 -0.0859375 C 11.078125 -0.0859375 11.050781 -0.0273438 11.050781 0 C 11.050781 0.0585938 11.078125 0.113281 11.136719 0.113281 L 17.207031 0.113281 C 17.265625 0.113281 17.292969 0.0585938 17.292969 0 C 17.292969 -0.0273438 17.265625 -0.0859375 17.207031 -0.0859375 Z M 17.207031 -0.0859375 "/></g></g></g><g fill="#000000" fill-opacity="1"><g transform="translate(46.406397, 23.718237)"><g><path d="M 11.25 -9.582031 L 5.4375 -13.78125 C 4.402344 -14.445312 3.769531 -15.566406 3.769531 -16.71875 C 3.769531 -18.761719 5.265625 -20.285156 7.308594 -20.34375 C 7.335938 -20.34375 7.394531 -20.34375 7.421875 -20.34375 C 8.316406 -20.34375 9.207031 -20.140625 10.011719 -19.765625 C 10.042969 -19.738281 10.097656 -19.738281 10.15625 -19.710938 C 11.941406 -18.789062 13.035156 -17.0625 13.035156 -15.191406 C 13.035156 -15.132812 13.09375 -15.078125 13.148438 -15.078125 C 13.179688 -15.078125 13.234375 -15.132812 13.234375 -15.191406 L 13.234375 -19.996094 C 13.234375 -20.054688 13.179688 -20.113281 13.148438 -20.113281 C 13.09375 -20.113281 13.035156 -20.054688 13.035156 -19.996094 C 13.035156 -19.59375 12.949219 -19.335938 12.746094 -19.21875 C 12.285156 -18.933594 11.277344 -19.363281 10.242188 -19.882812 C 10.1875 -19.910156 10.128906 -19.941406 10.097656 -19.941406 C 10.070312 -19.941406 10.070312 -19.941406 10.070312 -19.941406 C 9.265625 -20.34375 8.34375 -20.542969 7.421875 -20.542969 C 7.394531 -20.542969 7.335938 -20.542969 7.308594 -20.542969 C 5.785156 -20.515625 4.34375 -19.941406 3.28125 -18.933594 C 2.214844 -17.925781 1.609375 -16.601562 1.609375 -15.191406 C 1.609375 -13.4375 2.5625 -11.769531 4.144531 -10.789062 L 10.070312 -6.53125 C 11.277344 -5.839844 12 -4.691406 12 -3.425781 C 12 -1.382812 10.1875 0.257812 7.855469 0.316406 C 7.828125 0.316406 7.769531 0.316406 7.738281 0.316406 C 6.617188 0.316406 5.523438 0.0585938 4.546875 -0.460938 C 4.515625 -0.460938 4.515625 -0.488281 4.488281 -0.488281 L 4.429688 -0.519531 C 2.703125 -1.523438 1.640625 -3.195312 1.640625 -5.007812 C 1.640625 -5.0625 1.609375 -5.09375 1.554688 -5.09375 C 1.496094 -5.09375 1.46875 -5.0625 1.46875 -5.007812 L 1.46875 0.0273438 C 1.46875 0.0585938 1.496094 0.113281 1.554688 0.113281 C 1.609375 0.113281 1.640625 0.0585938 1.640625 0.0273438 C 1.640625 -0.519531 1.753906 -0.863281 2.015625 -1.007812 C 2.472656 -1.292969 3.511719 -0.804688 4.34375 -0.34375 L 4.375 -0.316406 C 4.402344 -0.316406 4.429688 -0.289062 4.460938 -0.289062 C 5.4375 0.257812 6.589844 0.519531 7.738281 0.519531 C 7.769531 0.519531 7.828125 0.519531 7.855469 0.519531 C 7.882812 0.519531 7.882812 0.519531 7.882812 0.519531 C 9.523438 0.488281 11.078125 -0.0859375 12.230469 -1.121094 C 13.378906 -2.15625 14.011719 -3.539062 14.011719 -5.007812 C 14.011719 -6.847656 12.976562 -8.574219 11.25 -9.582031 Z M 11.25 -9.582031 "/></g></g></g><g fill="#000000" fill-opacity="1"><g transform="translate(61.767728, 23.718237)"><g><path d="M 19.191406 -0.0859375 C 18.53125 -0.0859375 18.011719 -0.632812 18.011719 -1.292969 L 18.011719 -18.703125 C 18.011719 -19.363281 18.53125 -19.910156 19.191406 -19.910156 C 19.25 -19.910156 19.308594 -19.941406 19.308594 -19.996094 C 19.308594 -20.054688 19.25 -20.113281 19.191406 -20.113281 L 13.582031 -20.113281 C 13.550781 -20.113281 13.496094 -20.054688 13.496094 -19.996094 C 13.496094 -19.941406 13.550781 -19.910156 13.582031 -19.910156 C 14.242188 -19.910156 14.789062 -19.363281 14.789062 -18.703125 L 14.789062 -10.097656 L 5.695312 -10.097656 L 5.695312 -18.703125 C 5.695312 -19.363281 6.242188 -19.910156 6.90625 -19.910156 C 6.964844 -19.910156 6.992188 -19.941406 6.992188 -19.996094 C 6.992188 -20.054688 6.964844 -20.113281 6.90625 -20.113281 L 1.292969 -20.113281 C 1.238281 -20.113281 1.207031 -20.054688 1.207031 -19.996094 C 1.207031 -19.941406 1.238281 -19.910156 1.292969 -19.910156 C 1.957031 -19.910156 2.503906 -19.363281 2.503906 -18.703125 L 2.503906 -1.292969 C 2.503906 -0.632812 1.957031 -0.0859375 1.292969 -0.0859375 C 1.238281 -0.0859375 1.207031 -0.0273438 1.207031 0 C 1.207031 0.0585938 1.238281 0.113281 1.292969 0.113281 L 6.90625 0.113281 C 6.964844 0.113281 6.992188 0.0585938 6.992188 0 C 6.992188 -0.0273438 6.964844 -0.0859375 6.90625 -0.0859375 C 6.242188 -0.0859375 5.695312 -0.632812 5.695312 -1.292969 L 5.695312 -9.898438 L 14.789062 -9.898438 L 14.789062 -1.292969 C 14.789062 -0.632812 14.242188 -0.0859375 13.582031 -0.0859375 C 13.550781 -0.0859375 13.496094 -0.0273438 13.496094 0 C 13.496094 0.0585938 13.550781 0.113281 13.582031 0.113281 L 19.191406 0.113281 C 19.25 0.113281 19.308594 0.0585938 19.308594 0 C 19.308594 -0.0273438 19.25 -0.0859375 19.191406 -0.0859375 Z M 19.191406 -0.0859375 "/></g></g></g><g fill="#000000" fill-opacity="1"><g transform="translate(82.307039, 23.718237)"><g><path d="M 19.191406 -0.0859375 C 18.5 -0.0859375 17.753906 -0.632812 17.464844 -1.292969 L 9.8125 -20.488281 C 9.8125 -20.488281 9.8125 -20.515625 9.78125 -20.515625 C 9.78125 -20.515625 9.753906 -20.542969 9.753906 -20.542969 C 9.726562 -20.542969 9.726562 -20.542969 9.726562 -20.542969 C 9.726562 -20.542969 9.726562 -20.542969 9.695312 -20.542969 C 9.667969 -20.542969 9.667969 -20.542969 9.667969 -20.542969 C 9.667969 -20.542969 9.667969 -20.515625 9.667969 -20.515625 C 9.640625 -20.515625 9.640625 -20.515625 9.640625 -20.515625 C 9.640625 -20.515625 9.640625 -20.488281 9.640625 -20.488281 L 8 -16.429688 C 8 -16.402344 8 -16.371094 8 -16.34375 L 12.027344 -6.242188 L 4 -6.242188 C 4 -6.242188 4 -6.242188 3.972656 -6.242188 C 3.972656 -6.242188 3.972656 -6.214844 3.941406 -6.214844 C 3.941406 -6.1875 3.914062 -6.1875 3.914062 -6.1875 L 1.984375 -1.324219 C 1.699219 -0.632812 0.921875 -0.0859375 0.257812 -0.0859375 C 0.203125 -0.0859375 0.171875 -0.0273438 0.171875 0.0273438 C 0.171875 0.0585938 0.203125 0.113281 0.257812 0.113281 L 2.847656 0.113281 C 2.90625 0.113281 2.933594 0.0585938 2.933594 0.0273438 C 2.933594 -0.0273438 2.90625 -0.0859375 2.847656 -0.0859375 C 2.5625 -0.0859375 2.332031 -0.203125 2.1875 -0.375 C 2.042969 -0.605469 2.042969 -0.921875 2.15625 -1.238281 L 4.085938 -6.042969 L 12.113281 -6.042969 L 14.042969 -1.238281 C 14.15625 -0.921875 14.15625 -0.605469 14.011719 -0.375 C 13.867188 -0.203125 13.636719 -0.0859375 13.351562 -0.0859375 C 13.292969 -0.0859375 13.234375 -0.0273438 13.234375 0.0273438 C 13.234375 0.0585938 13.292969 0.113281 13.351562 0.113281 L 19.191406 0.113281 C 19.21875 0.113281 19.277344 0.0585938 19.277344 0.0273438 C 19.277344 -0.0273438 19.21875 -0.0859375 19.191406 -0.0859375 Z M 19.191406 -0.0859375 "/></g></g></g><g fill="#000000" fill-opacity="1"><g transform="translate(101.781986, 23.718237)"><g><path d="M 16.832031 -20.113281 L 0.71875 -20.113281 C 0.660156 -20.113281 0.632812 -20.054688 0.632812 -19.996094 L 0.632812 -15.222656 C 0.632812 -15.164062 0.660156 -15.105469 0.71875 -15.105469 C 0.777344 -15.105469 0.804688 -15.164062 0.804688 -15.222656 C 0.804688 -17.8125 2.933594 -19.910156 5.523438 -19.910156 L 7.164062 -19.910156 L 7.164062 -1.292969 C 7.164062 -0.632812 6.648438 -0.0859375 5.984375 -0.0859375 C 5.925781 -0.0859375 5.871094 -0.0273438 5.871094 0 C 5.871094 0.0585938 5.925781 0.113281 5.984375 0.113281 L 11.59375 0.113281 C 11.625 0.113281 11.683594 0.0585938 11.683594 0 C 11.683594 -0.0273438 11.625 -0.0859375 11.59375 -0.0859375 C 10.933594 -0.0859375 10.386719 -0.632812 10.386719 -1.292969 L 10.386719 -19.910156 L 12.054688 -19.910156 C 14.644531 -19.910156 16.746094 -17.8125 16.746094 -15.222656 C 16.746094 -15.164062 16.804688 -15.105469 16.832031 -15.105469 C 16.890625 -15.105469 16.949219 -15.164062 16.949219 -15.222656 L 16.949219 -19.996094 C 16.949219 -20.054688 16.890625 -20.113281 16.832031 -20.113281 Z M 16.832031 -20.113281 "/></g></g></g><g clip-path="url(#dd31103b9a)"><path stroke-linecap="butt" transform="matrix(0.727581, 0, 0, 0.727342, 3.186452, 1.108644)" fill="none" stroke-linejoin="miter" d="M 0.00144037 0.00100482 L 172.549952 0.00100482 L 172.549952 36.923745 L 0.00144037 36.923745 L 0.00144037 0.00100482 " stroke="#000000" stroke-width="2" stroke-opacity="1" stroke-miterlimit="4"/></g></svg>